/* XPM */
static char *mod_perl[] = {
/* width height num_colors chars_per_pixel */
"    90    30       43            1",
/* colors */
". c #ffffff",
"# c #080808",
"a c #101010",
"b c #181818",
"c c #212121",
"d c #292929",
"e c #313131",
"f c #393939",
"g c #424242",
"h c #4a4a4a",
"i c #525252",
"j c #5a5a5a",
"k c #636363",
"l c #6b6b6b",
"m c #737373",
"n c #7b7b7b",
"o c #848484",
"p c #8c8c8c",
"q c #949494",
"r c #9c9c9c",
"s c #a5a5a5",
"t c #adadad",
"u c #b5b5b5",
"v c #bdbdbd",
"w c #c6c6c6",
"x c #cecece",
"y c #d6d6d6",
"z c #dedede",
"A c #e7e7e7",
"B c #efefef",
"C c #f7f7f7",
"D c #ff1000",
"E c #f73900",
"F c #ff7300",
"G c #efd600",
"H c #4a00ce",
"I c #7b00ff",
"J c #c600ff",
"K c #f700e7",
"L c #f700ad",
"M c #f70073",
"N c #ef0021",
"O c #000000",
/* pixels */
"AAAAAAAAAAAAAAAAAAAAAAAAAAAAAAAAAAAAAAAAAAAAAAAAAAAAAAAAAAAAAAAAAAAAAAAAAAAAAAAAAAAAAAAAAA",
"AOOOOOOOOOOOOOOOOOOOOOOOOOOOOOOOOOOOOOOOOOOOOOOOOOOOOOOOOOOOOOOOOOOOOOOOOOOOOOOOOOOOOOOOOh",
"AOOOOOOOOOOOOOOOOOOOOOOOOOOOOOOOOOOOOOOOOOOOOOOOOOOOOOOOOOOOOOOOOOOOOOOOOOOOOOOOOOOOOOOOOh",
"AOOOOOOOOOOOOOOOOOOOOOOOOOOOOOOOOOOOOOOOOOOOOOOOOOOOOOOOOOOOOOOOOOOOOOOOOOOOOOOOOOOOOOOOOh",
"AOOOOOOHHIIOOOOOOOJJJJJJJKKKKOOOOOOLLLLLOOOOOOOOMMMMNNNDOOOOODDDOOOOOOEFFOOOOFFGGGGGGGGGOh",
"AOOOOOHHHIIIOOOOOOJJJOOOOOOKKKOOOOLLLOLLLOOOOOOMMMOOOONDDOOOODDDOOOOOOEFFOOOOFFGOOOOOOOOOh",
"AOOOOHHHOOIIIOOOOOJJJOOOOOOKKKOOOKLLOOOLLLOOOOOMMOOOOOOOOOOOODDDDEEEEEEFFOOOOFFGGGGGOOOOOh",
"AOOOHHHOOOOIIIOOOOJJJJJJJKKKKOOOKKLOOOOOLLMOOOOMMOOOOOOOOOOOODDDDEEEEEEFFOOOOFFGOOOOOOOOOh",
"AOOHHHHHHIIIIIJOOOJJJOOOOOOOOOOKKKLLLLLLLLMhhhhhhhOOOONDDOOOODDDOOOOOOEFFOOOOFFGOOOOOOOOOh",
"AOHHHOOOOOOOOIJJOOJJJOOOOOOOOOKKKOOOOOOOOhh.........NNNDOOOOODDDOOOOOOEFFOOOOFFGGGGGGGGGOh",
"AOOOOOOOOOOOOOOOOOOOOOOOOOOOOOOOOOOOOOOhh..lp.........#OOOOOOOOOOOOOOOOOOOOOOOOOOOOOOOOOOh",
"AOOOOOOOOOOOOOOOOOOOOOOOOOOOOOOOOOOOOOh...k#kOB...yauy.OOOOOOOOOOOOOOOOOOOOOOOOOOOOOOOOOOh",
"AOOOOOOOOOOOOOOOOOOOOOOOOOOOOOOOOOOOOh...u#nbaO...OhOql.OOOOOOOOOOOOOOOOOOOOOOOOOOOOOOOOOh",
"AOOOOOOOOOOOOOOOOOOOOOOOOOOOOOOOOOOOh...CdwBidkOC.#lez...OOOOOOOOOOOOOOOOOOOOOOOOOOOOOOOOh",
"Ahhhhhhhhhhhhhhhhhhhhhhhhhhhhhhhhhhhh...movsqr.nOzijfj....hhhhhhhhhhhhhhhhhhhhhhhhhhhhhhhh",
"A......................................AmwioqwByehlimi...................................h",
"A................................OO....eo.Asss.ucisqgf..............................OO...h",
"A................................OO...rmfctnsrukdyttOz..............................OO...h",
"A................................OO...hzibeeixkdbhsOu...............................OO...h",
"A.OO.OOO..OOO......OOOO......OOOOOO...rvgujfqmjdagnu...OO.OOO.......OOOO....OO.OOO..OO...h",
"A.OOO..OOO..OO....OO..OO....OO...OO....x#.wOsOs.Os.....OOO..OO.....OO..OO...OOOOOO..OO...h",
"A.OO...OO...OO...OO....OO..OO....OO....yf.Be.O#.Op.....OO....OO...OO...OO...OO......OO...h",
"A.OO...OO...OO...OO....OO..OO....OO....vm.Cl.Bi.jt.....OO....OO...OOOOOOO...OO......OO...h",
"A.OO...OO...OO...OO....OO..OO....OO....xt..xzBp.hC.....OO....OO...OO........OO......OO...h",
"A.OO...OO...OO...OO....OO..OO....OO....Cw...tv..nA.....OO....OO...OO........OO......OO...h",
"A.OO...OO...OO....OO..OO....OO..OOO....Cu..xhw..xw.....OO...OO.....OO..OO...OO......OO...h",
"A.OO...OO...OO.....OOOO......OOO.OO....xj..xzpB..u.....OOOOOO.......OOOO....OO......OO...h",
"A.......................................v........rs....OO................................h",
"A......................................................OO................................h",
"AhhhhhhhhhhhhhhhhhhhhhhhhhhhhhhhhhhhOOOOOOOOOOOOOOOOOhhhhhhhhhhhhhhhhhhhhhhhhhhhhhhhhhhhhh"
};
